# xmcd
#
# Track frame offsets:
#	150
#	5638
#	23152
#	43800
#	67950
#	89253
#	114952
#	140667
#	164485
#	194888
#	219988
#	247153
#	267727
#	289359
#	313493
# Disc length: 4591 seconds
# Revision: 2
# Processed by: cddbd v1.5.2PL0 Copyright (c) Steve Scherf et al.
#
# Submitted via: libkcddb 0.31
#
DISCID=f311ed0f
DTITLE=diam's - dans ma bulle
DYEAR=2006
DGENRE=Rap
TTITLE0=introduction
TTITLE1=la boulette
TTITLE2=ma france à moi
TTITLE3=feuille blanche
TTITLE4=jeune demoiselle
TTITLE5=car tu portes mon nom
TTITLE6=marine
TTITLE7=dans ma bulle
TTITLE8=par amour
TTITLE9=big up
TTITLE10=confessions nocturnes (avec vitaa)
TTITLE11=t.s.
TTITLE12=me  revoila
TTITLE13=cause a effet
TTITLE14=petite banlieusarde
EXTD=
EXTT0=
EXTT1=
EXTT2=
EXTT3=
EXTT4=
EXTT5=
EXTT6=
EXTT7=
EXTT8=
EXTT9=
EXTT10=
EXTT11=
EXTT12=
EXTT13=
EXTT14=
PLAYORDER=
